<?xml version="1.0" encoding="UTF-8"?>
<svg id="_Слой_1" data-name="Слой_1" xmlns="http://www.w3.org/2000/svg" version="1.1" xmlns:xlink="http://www.w3.org/1999/xlink" viewBox="0 0 2073.91 786.2">
  <!-- Generator: Adobe Illustrator 29.5.0, SVG Export Plug-In . SVG Version: 2.1.0 Build 137)  -->
  <defs>
    <style>
      .st0 {
        fill: #45a0c8;
      }

      .st1 {
        fill: #50b3bc;
      }

      .st2 {
        fill: #5ac3b1;
      }

      .st3 {
        fill: #52b6ba;
      }

      .st4 {
        fill: #56bdb5;
      }

      .st5 {
        fill: #4097ce;
      }

      .st6 {
        fill: #5ac2b2;
      }

      .st7 {
        fill: #323c45;
      }

      .st8 {
        fill: #58c0b3;
      }

      .st9 {
        fill: #3f96cf;
      }

      .st10 {
        fill: #59c1b2;
      }

      .st11 {
        fill: #46a1c7;
      }

      .st12 {
        fill: #46a2c7;
      }

      .st13 {
        fill: #4ba9c2;
      }

      .st14 {
        fill: #429acc;
      }

      .st15 {
        fill: #3e94d0;
      }

      .st16 {
        fill: #4aa7c3;
      }

      .st17 {
        fill: #3c91d2;
      }

      .st18 {
        fill: #58bfb4;
      }

      .st19 {
        fill: none;
      }

      .st20 {
        fill: #4c4c4c;
      }

      .st21 {
        fill: #55bbb6;
      }

      .st22 {
        fill: #52b5ba;
      }

      .st23 {
        fill: #50b2bc;
      }

      .st24 {
        fill: #4cabc1;
      }

      .st25 {
        fill: #51b4bb;
      }

      .st26 {
        fill: #5bc5b0;
      }

      .st27 {
        clip-path: url(#clippath-1);
      }

      .st28 {
        fill: #5cc6af;
      }

      .st29 {
        fill: #56bcb6;
      }

      .st30 {
        fill: #48a4c5;
      }

      .st31 {
        fill: #449ec9;
      }

      .st32 {
        fill: #459fc9;
      }

      .st33 {
        fill: #5bc4b0;
      }

      .st34 {
        fill: #49a6c4;
      }

      .st35 {
        fill: #4daebf;
      }

      .st36 {
        fill: #4aa8c3;
      }

      .st37 {
        fill: #4baac1;
      }

      .st38 {
        fill: #3e95cf;
      }

      .st39 {
        fill: #54b9b8;
      }

      .st40 {
        fill: #47a3c6;
      }

      .st41 {
        fill: #4dadc0;
      }

      .st42 {
        fill: #4fb1bd;
      }

      .st43 {
        fill: #439ccb;
      }

      .st44 {
        fill: #57beb4;
      }

      .st45 {
        fill: #4eb0be;
      }

      .st46 {
        fill: #48a5c5;
      }

      .st47 {
        fill: #4199cd;
      }

      .st48 {
        fill: #53b7b9;
      }

      .st49 {
        fill: #3d92d1;
      }

      .st50 {
        clip-path: url(#clippath-2);
      }

      .st51 {
        fill: #439dca;
      }

      .st52 {
        fill: #53b8b8;
      }

      .st53 {
        fill: #4098cd;
      }

      .st54 {
        fill: #55bab7;
      }

      .st55 {
        fill: #3d93d1;
      }

      .st56 {
        fill: #429bcb;
      }

      .st57 {
        clip-path: url(#clippath);
      }

      .st58 {
        fill: #4eafbe;
      }
    </style>
    <clipPath id="clippath">
      <path class="st19" d="M1749.99,458.3c0,11.9-8.86,22.15-20.21,22.15-13.29,0-22.15-10.24-22.15-22.15,0-10.24,8.86-20.49,22.15-20.49,11.35,0,20.21,10.24,20.21,20.49ZM1808.68,309.64c0,12.18-8.58,19.93-18.27,19.93-11.35,0-19.93-7.75-19.93-19.93,0-11.07,8.86-18.55,19.93-18.55,9.69,0,18.27,7.47,18.27,18.55ZM1805.64,465.78c0,8.58-6.92,15.5-15.78,15.5s-16.06-6.92-16.06-15.5v-97.72c0-8.58,6.92-15.5,16.06-15.5s15.78,6.92,15.78,15.5v97.72ZM1826.95,416.78c0-19.1,6.37-34.6,18.83-47.06,12.46-12.18,28.79-18.27,49-18.27s36.82,6.09,49.28,18.27c12.46,12.46,18.55,27.96,18.55,47.06s-6.09,34.6-18.55,46.79c-12.46,12.46-29.07,18.55-49.28,18.55s-36.54-6.09-49-18.55c-12.46-12.18-18.83-27.68-18.83-46.79ZM1894.78,452.49c19.93,0,34.05-14.4,34.05-35.71s-14.4-35.44-34.05-35.44-33.77,14.4-33.77,35.44,14.12,35.71,33.77,35.71Z"/>
    </clipPath>
    <clipPath id="clippath-1">
      <path class="st19" d="M108.81,636.39c-6.12,0-12.08-2.4-16.52-6.84-5.9-5.9-8.21-14.5-6.05-22.57l26.83-100.14c-18.1-34.5-27.63-73.12-27.63-112.34,0-133.38,108.51-241.89,241.89-241.89s241.89,108.51,241.89,241.89-108.51,241.89-241.89,241.89c-39.22,0-77.84-9.52-112.34-27.63l-100.14,26.83c-2,.53-4.03.8-6.04.8ZM226.96,546.85c3.74,0,7.45.98,10.75,2.89,27.11,15.69,58.11,23.99,89.63,23.99,98.82,0,179.22-80.4,179.22-179.22s-80.4-179.22-179.22-179.22-179.22,80.4-179.22,179.22c0,31.52,8.29,62.51,23.99,89.63,2.85,4.93,3.63,10.8,2.16,16.3l-17.26,64.41,64.41-17.26c1.83-.49,3.69-.73,5.55-.73Z"/>
    </clipPath>
    <clipPath id="clippath-2">
      <path class="st19" d="M428.29,397.01c0-14.99-12.15-27.13-27.13-27.13s-27.13,12.15-27.13,27.13c0,11.36,6.99,21.08,16.9,25.12v19.13c0,14.58-11.86,26.44-26.44,26.44s-26.44-11.86-26.44-26.44v-19.13c9.91-4.04,16.9-13.76,16.9-25.12s-6.99-21.08-16.9-25.12v-24.66c0-25.86-21.04-46.9-46.9-46.9s-46.9,21.04-46.9,46.9v27.65c-9.91,4.04-16.9,13.76-16.9,25.12,0,14.99,12.15,27.13,27.13,27.13s27.13-12.15,27.13-27.13c0-11.36-6.99-21.08-16.9-25.12v-27.65c0-14.58,11.86-26.44,26.44-26.44s26.44,11.86,26.44,26.44v24.66c-9.91,4.04-16.9,13.76-16.9,25.12s6.99,21.08,16.9,25.12v19.13c0,25.86,21.04,46.9,46.9,46.9s46.9-21.04,46.9-46.9v-19.13c9.91-4.04,16.9-13.76,16.9-25.12Z"/>
    </clipPath>
  </defs>
  <g>
    <path class="st7" d="M644.53,439.48c3.04-3.6,6.92-5.54,11.9-5.54,4.15,0,8.3,1.38,12.18,4.15,10.8,8.03,21.04,12.18,30.73,12.18,16.61,0,28.24-8.31,28.24-22.7,0-37.93-87.76-29.07-87.76-91.91,0-15.23,5.54-27.96,16.61-38.2,10.8-10.24,25.47-15.23,43.74-15.23,15.23,0,27.68,2.77,37.93,8.03,7.47,3.88,11.35,8.86,11.35,15.23,0,2.49-.83,5.26-2.49,8.03-3.04,5.26-7.2,7.75-13.01,7.75-3.05,0-5.81-.55-8.58-1.94-8.58-3.6-16.06-5.54-22.98-5.54-16.61,0-26.58,8.58-26.58,21.59,0,40.14,87.76,27.41,87.76,91.91,0,16.06-6.09,29.07-18.55,39.31s-27.68,15.5-46.23,15.5c-20.21,0-37.37-6.37-52.05-18.83-4.15-3.6-6.37-8.03-6.37-13.01,0-3.88,1.38-7.47,4.15-10.8Z"/>
    <path class="st7" d="M852.44,352.27c18.55,0,31.56,8.03,36.27,19.93,10.24-13.29,24.09-19.93,42.08-19.93,26.58,0,39.87,15.23,39.87,45.4v68.1c0,8.58-6.92,15.5-15.78,15.5s-16.06-6.92-16.06-15.5v-59.8c0-15.78-7.2-23.81-21.32-23.81-12.18,0-20.76,4.71-25.75,14.4,0,1.11.28,7.2.28,9.14v60.07c0,8.58-6.92,15.5-15.78,15.5s-16.06-6.92-16.06-15.5v-62.01c0-13.29-7.48-21.59-20.76-21.59-11.35,0-20.21,4.43-26.02,13.29v70.32c0,8.58-6.92,15.5-15.78,15.5s-16.06-6.92-16.06-15.5v-95.79c0-10.8,6.37-17.44,16.33-17.44,8.86,0,15.5,6.37,15.5,15.5,9.69-10.52,22.7-15.78,39.03-15.78Z"/>
    <path class="st7" d="M1029.34,402.11c11.35,0,20.76,2.77,28.24,8.03v-3.88c0-19.1-6.37-28.24-23.25-28.24-6.92,0-13.57.83-19.38,2.77-3.04.83-4.98,1.11-6.37,1.11-4.98,0-8.58-2.21-10.8-6.64-.83-1.66-1.11-3.32-1.11-5.26,0-5.26,3.05-9.41,9.14-11.9,10.24-4.43,20.76-6.64,31.84-6.64,35.44,0,49.83,17.44,49.83,51.77v63.4c0,7.47-6.09,14.12-14.12,14.12s-13.56-6.09-13.56-14.95c-8.03,9.97-20.21,14.95-36.82,14.95-23.25,0-39.03-14.67-39.03-38.2,0-26.3,18.83-40.42,45.4-40.42ZM1057.57,429.79c-5.26-4.15-12.73-6.09-21.87-6.09-11.35,0-19.93,5.54-19.93,15.5,0,9.14,7.47,14.67,17.72,14.67,10.8,0,18.83-3.88,24.08-11.35v-12.73Z"/>
    <path class="st7" d="M1140.9,366.39c7.47-9.69,16.89-14.67,28.24-14.67,8.03,0,16.33,4.71,16.33,14.4,0,10.8-6.64,16.33-19.93,16.33-.83,0-3.32-.28-4.43-.28h-1.94c-8.03,0-14.12,4.43-18.27,13.29v70.32c0,8.58-6.92,15.5-15.78,15.5s-16.06-6.92-16.06-15.5v-95.79c0-10.8,6.37-17.44,16.33-17.44,8.86,0,15.5,6.09,15.5,13.84Z"/>
    <path class="st7" d="M1265.48,463.56c0,5.54-2.77,9.69-8.58,12.73-7.2,3.6-16.06,5.54-26.3,5.54-27.41,0-38.76-16.89-38.76-50.11v-96.34c0-8.58,6.92-15.5,16.06-15.5s15.78,6.92,15.78,15.5v19.1h24.64c8.58,0,15.5,6.92,15.5,14.95s-6.92,14.95-15.5,14.95h-24.64v45.4c0,14.95,4.71,22.42,14.4,22.42,5.26,0,12.46-1.38,14.67-1.38,8.03,0,12.73,5.81,12.73,12.73Z"/>
    <path class="st7" d="M1345.76,284.45c77.51,0,108.8,44.57,108.8,95.79,0,28.79-9.69,52.6-28.79,71.15-19.38,18.82-46.79,28.24-82.22,28.24-4.98,0-17.72-.28-37.93-.55-9.69,0-16.89-7.75-16.89-16.89v-160.01c0-9.14,7.2-16.89,16.89-17.16,18.82-.28,32.11-.55,40.14-.55ZM1322.79,447.23c6.37.28,13.56.55,21.87.55,46.23,0,73.92-26.3,73.92-67.55s-27.68-63.95-73.36-63.95c-7.2,0-14.67.28-22.42.83v130.11Z"/>
    <path class="st7" d="M1516.85,342.31v122.09c0,9.14-7.75,16.89-16.89,16.89-9.69,0-17.16-7.2-17.16-16.89v-161.67c0-10.8,7.75-18.82,19.1-18.82,8.03,0,15.23,4.15,21.32,12.18l60.07,79.73,57.31-79.18c6.09-8.58,13.01-12.73,21.04-12.73,9.97,0,16.89,7.2,16.89,16.89v163.61c0,9.14-7.75,16.89-16.89,16.89s-16.89-7.75-16.89-16.89v-122.36l-47.62,64.23c-9.14,12.46-22.98,12.46-32.11,0l-48.17-63.95Z"/>
  </g>
  <g>
    <path class="st20" d="M659.65,575.32c0,.92-.73,1.65-1.71,1.65-.92,0-1.65-.73-1.65-1.65v-38.3h-14.32c-.92,0-1.53-.67-1.53-1.65,0-.92.61-1.53,1.53-1.53h32c.92,0,1.53.67,1.53,1.65,0,.92-.73,1.53-1.53,1.53h-14.32v38.3Z"/>
    <path class="st20" d="M702.42,550.54c0-2.02,3.18-2.02,3.18,0v24.84c0,.92-.67,1.53-1.65,1.53-.92,0-1.53-.61-1.53-1.53v-3.06c-2.2,2.75-6.3,4.9-10.46,4.9-7.04,0-10.52-4.04-10.52-12.12v-14.56c0-.92.67-1.53,1.65-1.53.8,0,1.53.61,1.53,1.53v13.89c0,6.55,2.82,9.79,8.51,9.79,3.61,0,7.34-2.26,9.3-4.77v-18.91Z"/>
    <path class="st20" d="M727.07,575.38c0,2.02-3.18,2.02-3.18,0v-24.84c0-.92.67-1.53,1.65-1.53.79,0,1.53.61,1.53,1.53v2.26c1.84-2.75,4.28-4.16,7.4-4.16,1.22,0,2.26.18,3.18.49.67.24.98.73.98,1.41,0,.18-.06.43-.18.67-.31.61-.73.92-1.41.92-.25,0-.55-.06-.86-.18-.55-.18-1.35-.31-2.39-.31-2.75,0-4.96,1.47-6.73,4.47v19.27Z"/>
    <path class="st20" d="M755.71,575.38c0,2.02-3.18,2.02-3.18,0v-24.84c0-.92.67-1.53,1.65-1.53.79,0,1.53.61,1.53,1.53v2.45c2.2-2.45,6.18-4.34,9.91-4.34,7.59,0,11.5,3.79,11.5,12.3v14.44c0,.92-.67,1.53-1.65,1.53-.8,0-1.53-.61-1.53-1.53v-13.83c0-6.61-3-9.91-9.06-9.91-3.61,0-7.22,1.83-9.18,4.22v19.52Z"/>
    <path class="st20" d="M831.21,533.66c17.13,0,24.05,9.85,24.05,20.99,0,6.42-2.14,11.75-6.36,15.91-4.28,4.16-10.34,6.24-18.17,6.24-1.47,0-4.34-.06-8.69-.12-.98,0-1.77-.8-1.77-1.77v-39.28c0-.98.79-1.77,1.77-1.77,2.33,0,6.79-.18,9.18-.18ZM823.62,573.49c4.65.06,7.04.12,7.22.12,6.67,0,11.81-1.77,15.42-5.32,3.61-3.49,5.45-8.08,5.45-13.64,0-5.26-1.71-9.55-5.2-12.85-3.49-3.3-8.63-4.96-15.42-4.96-2.51,0-5.51.18-7.46.18v36.47Z"/>
    <path class="st20" d="M875.21,540.69c-1.29,0-2.26-.86-2.26-2.26,0-1.22,1.04-2.02,2.26-2.02,1.04,0,2.08.86,2.08,2.02,0,1.41-.92,2.26-2.08,2.26ZM876.67,575.38c0,2.02-3.18,2.02-3.18,0v-24.84c0-.92.67-1.53,1.65-1.53.92,0,1.53.61,1.53,1.53v24.84Z"/>
    <path class="st20" d="M899.62,575.38c0,2.02-3.18,2.02-3.18,0v-24.84c0-.92.67-1.53,1.65-1.53.79,0,1.53.61,1.53,1.53v2.26c1.84-2.75,4.28-4.16,7.4-4.16,1.22,0,2.26.18,3.18.49.67.24.98.73.98,1.41,0,.18-.06.43-.18.67-.31.61-.73.92-1.41.92-.25,0-.55-.06-.86-.18-.55-.18-1.35-.31-2.39-.31-2.75,0-4.96,1.47-6.73,4.47v19.27Z"/>
    <path class="st20" d="M949.49,562.35c0,.55-.61,1.22-1.29,1.22h-21.54c.25,6.61,4.65,10.65,11.26,10.65,2.75,0,5.26-.8,7.46-2.39.31-.18.55-.31.86-.31.43,0,.86.18,1.22.61.18.31.31.55.31.86,0,.37-.12.67-.43.98-2.75,2.14-5.94,3.24-9.61,3.24-4.34,0-7.89-1.29-10.59-3.92s-4.04-6.06-4.04-10.4,1.22-7.59,3.73-10.28c2.45-2.69,5.87-4.04,10.22-4.04,3.61,0,6.55,1.16,8.93,3.43,2.39,2.26,3.55,5.26,3.55,8.99,0,.61,0,1.04-.06,1.35ZM946.3,560.94c-.06-5.81-3.73-9.36-9.55-9.36s-9.73,3.79-10.28,9.36h19.83Z"/>
    <path class="st20" d="M977.57,551.58c-3,0-5.51,1.1-7.65,3.24s-3.18,4.83-3.18,8.08c0,3.43,1.1,6.18,3.24,8.2,2.14,2.08,4.89,3.12,8.2,3.12,2.75,0,5.26-.92,7.46-2.81.31-.31.67-.49,1.1-.49.37,0,.73.12,1.04.43.55.49.55,1.47,0,2.02-2.63,2.57-5.87,3.85-9.85,3.85-4.28,0-7.77-1.29-10.46-3.92-2.75-2.63-4.1-6.06-4.1-10.4,0-4.04,1.29-7.46,3.92-10.22,2.63-2.75,5.87-4.1,9.79-4.1s7.34.86,9.85,2.57c.37.31.55.67.55,1.16,0,.31-.12.61-.37.92-.37.37-.79.55-1.22.55-.31,0-.67-.12-.98-.31-1.9-1.29-4.34-1.9-7.34-1.9Z"/>
    <path class="st20" d="M1017.65,573.61c.18.25.25.49.25.67,0,.55-.25.98-.67,1.22-1.84,1.04-3.73,1.53-5.69,1.53-5.94,0-8.63-3.67-8.63-10.83v-23.19c0-.92.67-1.53,1.65-1.53.8,0,1.53.73,1.53,1.53v6.12h9.67c1.77,0,1.77,3,0,3h-9.67v13.58c0,5.57,2.08,8.32,6.18,8.32,1.04,0,2.14-.31,3.3-.86.43-.18.67-.25.86-.25.43,0,.86.25,1.22.67Z"/>
    <path class="st20" d="M1061.27,540.08v35.24c0,.92-.73,1.65-1.65,1.65-.98,0-1.71-.73-1.71-1.65v-39.83c0-.92.73-1.77,1.65-1.77.67,0,1.41.55,2.32,1.71l16.71,21.91,15.91-21.78c.86-1.22,1.65-1.84,2.39-1.84.79,0,1.53.67,1.53,1.65v39.96c0,.92-.73,1.65-1.71,1.65-.92,0-1.65-.73-1.65-1.65v-35.24l-15.48,20.86c-.31.37-.67.55-1.1.55s-.73-.18-.98-.49l-16.21-20.93Z"/>
    <path class="st20" d="M1143.02,562.35c0,.55-.61,1.22-1.29,1.22h-21.54c.25,6.61,4.65,10.65,11.26,10.65,2.75,0,5.26-.8,7.46-2.39.31-.18.55-.31.86-.31.43,0,.86.18,1.22.61.18.31.31.55.31.86,0,.37-.12.67-.43.98-2.75,2.14-5.94,3.24-9.61,3.24-4.34,0-7.89-1.29-10.59-3.92s-4.04-6.06-4.04-10.4,1.22-7.59,3.73-10.28c2.45-2.69,5.87-4.04,10.22-4.04,3.61,0,6.55,1.16,8.93,3.43,2.39,2.26,3.55,5.26,3.55,8.99,0,.61,0,1.04-.06,1.35ZM1139.84,560.94c-.06-5.81-3.73-9.36-9.55-9.36s-9.73,3.79-10.28,9.36h19.83Z"/>
    <path class="st20" d="M1158.86,571.71c.31,0,.67.12,1.1.43,2.02,1.53,4.28,2.26,6.92,2.26,3.43,0,6.18-1.77,6.18-4.96,0-6.85-15.24-3.55-15.24-13.58,0-4.41,3.55-7.28,8.87-7.28,3.06,0,5.69.73,7.83,2.14.31.18.49.55.49,1.04,0,.43-.12.73-.31.92-.31.37-.67.55-1.1.55-.31,0-.67-.12-.98-.31-1.71-1.04-3.67-1.53-5.87-1.53-3.37,0-5.57,1.96-5.57,4.41,0,7.22,15.24,3.92,15.24,13.52,0,5.14-4.28,7.89-9.91,7.89-3.61,0-6.49-1.04-8.63-3.06-.31-.31-.43-.61-.43-.98,0-.8.67-1.47,1.41-1.47Z"/>
    <path class="st20" d="M1192.27,571.71c.31,0,.67.12,1.1.43,2.02,1.53,4.28,2.26,6.92,2.26,3.43,0,6.18-1.77,6.18-4.96,0-6.85-15.24-3.55-15.24-13.58,0-4.41,3.55-7.28,8.87-7.28,3.06,0,5.69.73,7.83,2.14.31.18.49.55.49,1.04,0,.43-.12.73-.31.92-.31.37-.67.55-1.1.55-.31,0-.67-.12-.98-.31-1.71-1.04-3.67-1.53-5.87-1.53-3.37,0-5.57,1.96-5.57,4.41,0,7.22,15.24,3.92,15.24,13.52,0,5.14-4.28,7.89-9.91,7.89-3.61,0-6.49-1.04-8.63-3.06-.31-.31-.43-.61-.43-.98,0-.8.67-1.47,1.41-1.47Z"/>
    <path class="st20" d="M1234.49,560.27c3.06,0,5.57.67,7.46,2.08,0-3.12-.06-4.53-.55-6.61-.31-1.04-.67-1.77-1.16-2.33-.98-1.04-2.81-1.84-5.51-1.84-2.26,0-4.28.43-6.12,1.35-.25.12-.49.18-.73.18-.55,0-.98-.24-1.29-.79-.12-.25-.18-.49-.18-.67,0-.49.25-.86.73-1.16,2.51-1.29,5.08-1.9,7.77-1.9,7.34,0,10.22,3.67,10.22,11.01v15.79c0,.92-.61,1.53-1.59,1.53-.92,0-1.59-.73-1.59-1.53v-2.94c-2.26,3.06-5.38,4.59-9.42,4.59-5.14,0-8.5-3.24-8.5-8.2,0-5.38,4.34-8.57,10.46-8.57ZM1241.95,565.11c-2.02-1.47-4.41-2.2-7.16-2.2-3.98,0-7.4,2.02-7.4,5.75,0,3.37,2.63,5.38,6.12,5.38s6.24-1.47,8.44-4.34v-4.59Z"/>
    <path class="st20" d="M1272.61,571.9c8.32,0,13.77,3.18,13.77,8.81s-5.51,8.69-13.77,8.69-13.77-3.06-13.77-8.69c0-4.22,3.12-7.1,8.44-8.26-.61-.73-.92-1.59-.92-2.63s.37-1.96,1.04-2.75c-3.61-1.53-5.75-4.83-5.75-8.75,0-5.63,4.34-9.73,10.89-9.73,2.63,0,4.96.67,6.98,2.08l6.06-1.59c.06,0,.12,0,.18-.06h.12c.73,0,1.22.37,1.41,1.16,0,.06.06.24.06.31,0,.73-.37,1.22-1.1,1.41l-4.47,1.1c1.1,1.65,1.65,3.43,1.65,5.32,0,2.75-.98,5.08-3,6.91-2.02,1.9-4.65,2.81-7.89,2.81-1.04,0-1.96-.06-2.75-.24-.37.55-.55,1.22-.55,2.02,0,.92.24,1.65.79,2.2,1.16-.06,2.02-.12,2.57-.12ZM1272.61,586.52c3.24,0,5.81-.49,7.71-1.53,1.9-1.04,2.81-2.51,2.81-4.28s-.92-3.24-2.81-4.34c-1.9-1.04-4.47-1.59-7.71-1.59-6.36,0-10.52,2.26-10.52,5.93s4.1,5.81,10.52,5.81ZM1264.9,558.31c0,1.96.73,3.61,2.14,4.9,1.41,1.28,3.24,1.96,5.51,1.96s4.1-.67,5.51-1.96c1.41-1.29,2.14-2.94,2.14-4.9s-.73-3.61-2.14-4.89c-1.47-1.29-3.3-1.96-5.51-1.96s-4.04.67-5.45,1.96c-1.47,1.28-2.2,2.94-2.2,4.89Z"/>
    <path class="st20" d="M1326.02,562.35c0,.55-.61,1.22-1.29,1.22h-21.54c.25,6.61,4.65,10.65,11.26,10.65,2.75,0,5.26-.8,7.46-2.39.31-.18.55-.31.86-.31.43,0,.86.18,1.22.61.18.31.31.55.31.86,0,.37-.12.67-.43.98-2.75,2.14-5.94,3.24-9.61,3.24-4.34,0-7.89-1.29-10.59-3.92s-4.04-6.06-4.04-10.4,1.22-7.59,3.73-10.28c2.45-2.69,5.87-4.04,10.22-4.04,3.61,0,6.55,1.16,8.93,3.43,2.39,2.26,3.55,5.26,3.55,8.99,0,.61,0,1.04-.06,1.35ZM1322.84,560.94c-.06-5.81-3.73-9.36-9.55-9.36s-9.73,3.79-10.28,9.36h19.83Z"/>
    <path class="st20" d="M1341.87,571.71c.31,0,.67.12,1.1.43,2.02,1.53,4.28,2.26,6.92,2.26,3.43,0,6.18-1.77,6.18-4.96,0-6.85-15.24-3.55-15.24-13.58,0-4.41,3.55-7.28,8.87-7.28,3.06,0,5.69.73,7.83,2.14.31.18.49.55.49,1.04,0,.43-.12.73-.31.92-.31.37-.67.55-1.1.55-.31,0-.67-.12-.98-.31-1.71-1.04-3.67-1.53-5.87-1.53-3.37,0-5.57,1.96-5.57,4.41,0,7.22,15.24,3.92,15.24,13.52,0,5.14-4.28,7.89-9.91,7.89-3.61,0-6.49-1.04-8.63-3.06-.31-.31-.43-.61-.43-.98,0-.8.67-1.47,1.41-1.47Z"/>
    <path class="st20" d="M1401.96,540.69c-1.29,0-2.26-.86-2.26-2.26,0-1.22,1.04-2.02,2.26-2.02,1.04,0,2.08.86,2.08,2.02,0,1.41-.92,2.26-2.08,2.26ZM1403.42,575.38c0,2.02-3.18,2.02-3.18,0v-24.84c0-.92.67-1.53,1.65-1.53.92,0,1.53.61,1.53,1.53v24.84Z"/>
    <path class="st20" d="M1426.37,575.38c0,2.02-3.18,2.02-3.18,0v-24.84c0-.92.67-1.53,1.65-1.53.79,0,1.53.61,1.53,1.53v2.45c2.2-2.45,6.18-4.34,9.91-4.34,7.59,0,11.5,3.79,11.5,12.3v14.44c0,.92-.67,1.53-1.65,1.53-.8,0-1.53-.61-1.53-1.53v-13.83c0-6.61-3-9.91-9.06-9.91-3.61,0-7.22,1.83-9.18,4.22v19.52Z"/>
    <path class="st20" d="M1480.15,573.61c.18.25.25.49.25.67,0,.55-.25.98-.67,1.22-1.84,1.04-3.73,1.53-5.69,1.53-5.94,0-8.63-3.67-8.63-10.83v-23.19c0-.92.67-1.53,1.65-1.53.8,0,1.53.73,1.53,1.53v6.12h9.67c1.77,0,1.77,3,0,3h-9.67v13.58c0,5.57,2.08,8.32,6.18,8.32,1.04,0,2.14-.31,3.3-.86.43-.18.67-.25.86-.25.43,0,.86.25,1.22.67Z"/>
    <path class="st20" d="M1492.45,562.9c0-4.16,1.35-7.59,4.04-10.28s6.18-4.04,10.4-4.04,7.71,1.35,10.4,4.04,4.04,6.12,4.04,10.28-1.35,7.59-4.04,10.28c-2.69,2.69-6.18,4.04-10.4,4.04s-7.71-1.35-10.4-4.04c-2.69-2.69-4.04-6.12-4.04-10.28ZM1495.82,562.9c0,3.3,1.04,6,3.12,8.14,2.08,2.14,4.71,3.18,7.96,3.18s5.93-1.04,8.02-3.18c2.02-2.08,3.06-4.77,3.06-8.14s-1.04-6-3.12-8.14-4.71-3.18-7.95-3.18-5.81,1.04-7.89,3.18c-2.14,2.14-3.18,4.83-3.18,8.14Z"/>
    <path class="st20" d="M1580.07,536.47c-5.2,0-9.36,1.77-12.6,5.26-3.24,3.55-4.9,8.08-4.9,13.52s1.71,10.1,5.08,13.58,7.71,5.2,13.09,5.2c3.86,0,7.28-1.04,10.28-3.12.31-.18.61-.31.92-.31.43,0,.79.18,1.16.61.18.31.31.55.31.86,0,.49-.18.86-.55,1.16-3.12,2.45-7.89,3.98-12.36,3.98-6.42,0-11.56-2.02-15.54-6-3.98-3.98-5.94-9.3-5.94-15.97,0-6.3,1.9-11.5,5.75-15.72,3.85-4.16,8.93-6.24,15.24-6.24,4.83,0,8.81,1.04,11.81,3.18.43.31.67.73.67,1.29,0,.18-.06.49-.24.79-.31.49-.73.73-1.29.73-.18,0-.43-.06-.73-.25-2.75-1.71-6.12-2.57-10.16-2.57Z"/>
    <path class="st20" d="M1605.28,562.9c0-4.16,1.35-7.59,4.04-10.28s6.18-4.04,10.4-4.04,7.71,1.35,10.4,4.04,4.04,6.12,4.04,10.28-1.35,7.59-4.04,10.28c-2.69,2.69-6.18,4.04-10.4,4.04s-7.71-1.35-10.4-4.04c-2.69-2.69-4.04-6.12-4.04-10.28ZM1608.64,562.9c0,3.3,1.04,6,3.12,8.14,2.08,2.14,4.71,3.18,7.96,3.18s5.93-1.04,8.02-3.18c2.02-2.08,3.06-4.77,3.06-8.14s-1.04-6-3.12-8.14-4.71-3.18-7.95-3.18-5.81,1.04-7.89,3.18c-2.14,2.14-3.18,4.83-3.18,8.14Z"/>
    <path class="st20" d="M1653.62,575.38c0,2.02-3.18,2.02-3.18,0v-24.84c0-.92.67-1.53,1.65-1.53.79,0,1.53.61,1.53,1.53v2.45c2.2-2.45,6.18-4.34,9.91-4.34,7.59,0,11.5,3.79,11.5,12.3v14.44c0,.92-.67,1.53-1.65,1.53-.8,0-1.53-.61-1.53-1.53v-13.83c0-6.61-3-9.91-9.06-9.91-3.61,0-7.22,1.83-9.18,4.22v19.52Z"/>
    <path class="st20" d="M1700.48,566.45c1.04,2.33,1.9,4.34,2.51,6.06.92-2.57,1.77-4.65,2.45-6.24l7.16-16.15c.31-.73.8-1.1,1.47-1.1.92,0,1.59.67,1.59,1.47,0,.25-.06.49-.18.67l-11.08,24.9c-.31.67-.79.98-1.53.98-.8,0-1.29-.31-1.53-.98l-11.38-24.6c-.12-.25-.18-.49-.18-.73,0-.98.67-1.71,1.71-1.71.73,0,1.22.37,1.53,1.1l7.46,16.34Z"/>
    <path class="st20" d="M1753.72,562.35c0,.55-.61,1.22-1.29,1.22h-21.54c.25,6.61,4.65,10.65,11.26,10.65,2.75,0,5.26-.8,7.46-2.39.31-.18.55-.31.86-.31.43,0,.86.18,1.22.61.18.31.31.55.31.86,0,.37-.12.67-.43.98-2.75,2.14-5.94,3.24-9.61,3.24-4.34,0-7.89-1.29-10.59-3.92s-4.04-6.06-4.04-10.4,1.22-7.59,3.73-10.28c2.45-2.69,5.87-4.04,10.22-4.04,3.61,0,6.55,1.16,8.93,3.43,2.39,2.26,3.55,5.26,3.55,8.99,0,.61,0,1.04-.06,1.35ZM1750.54,560.94c-.06-5.81-3.73-9.36-9.55-9.36s-9.73,3.79-10.28,9.36h19.83Z"/>
    <path class="st20" d="M1773.23,575.38c0,2.02-3.18,2.02-3.18,0v-24.84c0-.92.67-1.53,1.65-1.53.79,0,1.53.61,1.53,1.53v2.26c1.84-2.75,4.28-4.16,7.4-4.16,1.22,0,2.26.18,3.18.49.67.24.98.73.98,1.41,0,.18-.06.43-.18.67-.31.61-.73.92-1.41.92-.25,0-.55-.06-.86-.18-.55-.18-1.35-.31-2.39-.31-2.75,0-4.96,1.47-6.73,4.47v19.27Z"/>
    <path class="st20" d="M1798.2,571.71c.31,0,.67.12,1.1.43,2.02,1.53,4.28,2.26,6.92,2.26,3.43,0,6.18-1.77,6.18-4.96,0-6.85-15.24-3.55-15.24-13.58,0-4.41,3.55-7.28,8.87-7.28,3.06,0,5.69.73,7.83,2.14.31.18.49.55.49,1.04,0,.43-.12.73-.31.92-.31.37-.67.55-1.1.55-.31,0-.67-.12-.98-.31-1.71-1.04-3.67-1.53-5.87-1.53-3.37,0-5.57,1.96-5.57,4.41,0,7.22,15.24,3.92,15.24,13.52,0,5.14-4.28,7.89-9.91,7.89-3.61,0-6.49-1.04-8.63-3.06-.31-.31-.43-.61-.43-.98,0-.8.67-1.47,1.41-1.47Z"/>
    <path class="st20" d="M1835.34,540.69c-1.29,0-2.26-.86-2.26-2.26,0-1.22,1.04-2.02,2.26-2.02,1.04,0,2.08.86,2.08,2.02,0,1.41-.92,2.26-2.08,2.26ZM1836.81,575.38c0,2.02-3.18,2.02-3.18,0v-24.84c0-.92.67-1.53,1.65-1.53.92,0,1.53.61,1.53,1.53v24.84Z"/>
    <path class="st20" d="M1854.61,562.9c0-4.16,1.35-7.59,4.04-10.28s6.18-4.04,10.4-4.04,7.71,1.35,10.4,4.04,4.04,6.12,4.04,10.28-1.35,7.59-4.04,10.28c-2.69,2.69-6.18,4.04-10.4,4.04s-7.71-1.35-10.4-4.04c-2.69-2.69-4.04-6.12-4.04-10.28ZM1857.98,562.9c0,3.3,1.04,6,3.12,8.14,2.08,2.14,4.71,3.18,7.96,3.18s5.93-1.04,8.02-3.18c2.02-2.08,3.06-4.77,3.06-8.14s-1.04-6-3.12-8.14-4.71-3.18-7.95-3.18-5.81,1.04-7.89,3.18c-2.14,2.14-3.18,4.83-3.18,8.14Z"/>
    <path class="st20" d="M1902.95,575.38c0,2.02-3.18,2.02-3.18,0v-24.84c0-.92.67-1.53,1.65-1.53.79,0,1.53.61,1.53,1.53v2.45c2.2-2.45,6.18-4.34,9.91-4.34,7.59,0,11.5,3.79,11.5,12.3v14.44c0,.92-.67,1.53-1.65,1.53-.8,0-1.53-.61-1.53-1.53v-13.83c0-6.61-3-9.91-9.06-9.91-3.61,0-7.22,1.83-9.18,4.22v19.52Z"/>
    <path class="st20" d="M1942.11,571.71c.31,0,.67.12,1.10.43,2.02,1.53,4.28,2.26,6.92,2.26,3.43,0,6.18-1.77,6.18-4.96,0-6.85-15.24-3.55-15.24-13.58,0-4.41,3.55-7.28,8.87-7.28,3.06,0,5.69.73,7.83,2.14.31.18.49.55.49,1.04,0,.43-.12.73-.31.92-.31.37-.67.55-1.1.55-.31,0-.67-.12-.98-.31-1.71-1.04-3.67-1.53-5.87-1.53-3.37,0-5.57,1.96-5.57,4.41,0,7.22,15.24,3.92,15.24,13.52,0,5.14-4.28,7.89-9.91,7.89-3.61,0-6.49-1.04-8.63-3.06-.31-.31-.43-.61-.43-.98,0-.8.67-1.47,1.41-1.47Z"/>
  </g>
  <g class="st57">
    <rect class="st34" x="1861.01" y="381.34" width=".58" height="71.15"/>
    <rect class="st46" x="1861.58" y="381.34" width="4.81" height="71.15"/>
    <rect class="st30" x="1866.39" y="381.34" width="4.81" height="71.15"/>
    <rect class="st40" x="1871.2" y="381.34" width="4.81" height="71.15"/>
    <rect class="st12" x="1876.01" y="381.34" width="4.81" height="71.15"/>
    <rect class="st11" x="1880.82" y="381.34" width="4.81" height="71.15"/>
    <rect class="st0" x="1885.63" y="381.34" width="4.81" height="71.15"/>
    <rect class="st32" x="1890.45" y="381.34" width="4.81" height="71.15"/>
    <rect class="st31" x="1895.26" y="381.34" width="4.81" height="71.15"/>
    <rect class="st51" x="1900.07" y="381.34" width="4.81" height="71.15"/>
    <rect class="st43" x="1904.88" y="381.34" width="4.81" height="71.15"/>
    <rect class="st56" x="1909.69" y="381.34" width="4.81" height="71.15"/>
    <rect class="st14" x="1914.5" y="381.34" width="4.81" height="71.15"/>
    <rect class="st47" x="1919.31" y="381.34" width="4.81" height="71.15"/>
    <rect class="st53" x="1924.12" y="381.34" width="4.71" height="71.15"/>
    <rect class="st35" x="1826.95" y="351.44" width=".95" height="130.67"/>
    <rect class="st41" x="1827.91" y="351.44" width="4.81" height="130.67"/>
    <rect class="st24" x="1832.72" y="351.44" width="4.81" height="130.67"/>
    <rect class="st37" x="1837.53" y="351.44" width="4.81" height="130.67"/>
    <rect class="st13" x="1842.34" y="351.44" width="4.81" height="130.67"/>
    <rect class="st36" x="1847.15" y="351.44" width="4.81" height="130.67"/>
    <rect class="st16" x="1851.96" y="351.44" width="4.81" height="130.67"/>
    <rect class="st34" x="1856.77" y="351.44" width="4.81" height="130.67"/>
    <rect class="st46" x="1861.58" y="351.44" width="4.81" height="130.67"/>
    <rect class="st30" x="1866.39" y="351.44" width="4.81" height="130.67"/>
    <rect class="st40" x="1871.2" y="351.44" width="4.81" height="130.67"/>
    <rect class="st12" x="1876.01" y="351.44" width="4.81" height="130.67"/>
    <rect class="st11" x="1880.82" y="351.44" width="4.81" height="130.67"/>
    <rect class="st0" x="1885.63" y="351.44" width="4.81" height="130.67"/>
    <rect class="st32" x="1890.45" y="351.44" width="4.81" height="130.67"/>
    <rect class="st31" x="1895.26" y="351.44" width="4.81" height="130.67"/>
    <rect class="st51" x="1900.07" y="351.44" width="4.81" height="130.67"/>
    <rect class="st43" x="1904.88" y="351.44" width="4.81" height="130.67"/>
    <rect class="st56" x="1909.69" y="351.44" width="4.81" height="130.67"/>
    <rect class="st14" x="1914.5" y="351.44" width="4.81" height="130.67"/>
    <rect class="st47" x="1919.31" y="351.44" width="4.81" height="130.67"/>
    <rect class="st53" x="1924.12" y="351.44" width="4.81" height="130.67"/>
    <rect class="st5" x="1928.93" y="351.44" width="4.81" height="130.67"/>
    <rect class="st9" x="1933.74" y="351.44" width="4.81" height="130.67"/>
    <rect class="st38" x="1938.55" y="351.44" width="4.81" height="130.67"/>
    <rect class="st15" x="1943.36" y="351.44" width="4.81" height="130.67"/>
    <rect class="st55" x="1948.17" y="351.44" width="4.81" height="130.67"/>
    <rect class="st49" x="1952.98" y="351.44" width="4.81" height="130.67"/>
    <rect class="st17" x="1957.8" y="351.44" width="4.81" height="130.67"/>
    <rect class="st39" x="1773.8" y="352.55" width="1.19" height="128.73"/>
    <rect class="st52" x="1774.99" y="352.55" width="4.81" height="128.73"/>
    <rect class="st48" x="1779.8" y="352.55" width="4.81" height="128.73"/>
    <rect class="st3" x="1784.61" y="352.55" width="4.81" height="128.73"/>
    <rect class="st22" x="1789.42" y="352.55" width="4.81" height="128.73"/>
    <rect class="st25" x="1794.23" y="352.55" width="4.81" height="128.73"/>
    <rect class="st1" x="1799.04" y="352.55" width="4.81" height="128.73"/>
    <rect class="st23" x="1803.85" y="352.55" width="1.79" height="128.73"/>
    <rect class="st39" x="1770.48" y="291.09" width="4.51" height="38.48"/>
    <rect class="st52" x="1774.99" y="291.09" width="4.81" height="38.48"/>
    <rect class="st48" x="1779.8" y="291.09" width="4.81" height="38.48"/>
    <rect class="st3" x="1784.61" y="291.09" width="4.81" height="38.48"/>
    <rect class="st22" x="1789.42" y="291.09" width="4.81" height="38.48"/>
    <rect class="st25" x="1794.23" y="291.09" width="4.81" height="38.48"/>
    <rect class="st1" x="1799.04" y="291.09" width="4.81" height="38.48"/>
    <rect class="st23" x="1803.85" y="291.09" width="4.81" height="38.48"/>
    <rect class="st42" x="1808.66" y="291.09" width=".02" height="38.48"/>
    <rect class="st28" x="1707.64" y="437.82" width="4.81" height="42.63"/>
    <rect class="st26" x="1712.45" y="437.82" width="4.81" height="42.63"/>
    <rect class="st33" x="1717.26" y="437.82" width="4.81" height="42.63"/>
    <rect class="st2" x="1722.07" y="437.82" width="4.81" height="42.63"/>
    <rect class="st6" x="1726.88" y="437.82" width="4.81" height="42.63"/>
    <rect class="st10" x="1731.69" y="437.82" width="4.81" height="42.63"/>
    <rect class="st8" x="1736.5" y="437.82" width="4.81" height="42.63"/>
    <rect class="st18" x="1741.31" y="437.82" width="4.81" height="42.63"/>
    <rect class="st44" x="1746.12" y="437.82" width="3.87" height="42.63"/>
  </g>
  <g>
    <g class="st27">
      <rect class="st18" x="148.11" y="215.28" width="2.93" height="358.44"/>
      <rect class="st44" x="151.04" y="215.28" width="9.13" height="358.44"/>
      <rect class="st4" x="160.17" y="215.28" width="9.13" height="358.44"/>
      <rect class="st29" x="169.3" y="215.28" width="9.13" height="358.44"/>
      <rect class="st21" x="178.43" y="215.28" width="9.13" height="358.44"/>
      <rect class="st54" x="187.56" y="215.28" width="9.13" height="358.44"/>
      <rect class="st39" x="196.68" y="215.28" width="9.13" height="358.44"/>
      <rect class="st52" x="205.81" y="215.28" width="9.13" height="358.44"/>
      <rect class="st48" x="214.94" y="215.28" width="9.13" height="358.44"/>
      <rect class="st3" x="224.07" y="215.28" width="9.13" height="358.44"/>
      <rect class="st22" x="233.19" y="215.28" width="9.13" height="358.44"/>
      <rect class="st25" x="242.32" y="215.28" width="9.13" height="358.44"/>
      <rect class="st1" x="251.45" y="215.28" width="9.13" height="358.44"/>
      <rect class="st23" x="260.58" y="215.28" width="9.13" height="358.44"/>
      <rect class="st42" x="269.71" y="215.28" width="9.13" height="358.44"/>
      <rect class="st45" x="278.83" y="215.28" width="9.13" height="358.44"/>
      <rect class="st58" x="287.96" y="215.28" width="9.13" height="358.44"/>
      <rect class="st35" x="297.09" y="215.28" width="9.13" height="358.44"/>
      <rect class="st41" x="306.22" y="215.28" width="9.13" height="358.44"/>
      <rect class="st24" x="315.35" y="215.28" width="9.13" height="358.44"/>
      <rect class="st37" x="324.47" y="215.28" width="9.13" height="358.44"/>
      <rect class="st13" x="333.6" y="215.28" width="9.13" height="358.44"/>
      <rect class="st36" x="342.73" y="215.28" width="9.13" height="358.44"/>
      <rect class="st16" x="351.86" y="215.28" width="9.13" height="358.44"/>
      <rect class="st34" x="360.98" y="215.28" width="9.13" height="358.44"/>
      <rect class="st46" x="370.11" y="215.28" width="9.13" height="358.44"/>
      <rect class="st30" x="379.24" y="215.28" width="9.13" height="358.44"/>
      <rect class="st40" x="388.37" y="215.28" width="9.13" height="358.44"/>
      <rect class="st12" x="397.5" y="215.28" width="9.13" height="358.44"/>
      <rect class="st11" x="406.62" y="215.28" width="9.13" height="358.44"/>
      <rect class="st0" x="415.75" y="215.28" width="9.13" height="358.44"/>
      <rect class="st32" x="424.88" y="215.28" width="9.13" height="358.44"/>
      <rect class="st31" x="434.01" y="215.28" width="9.13" height="358.44"/>
      <rect class="st51" x="443.14" y="215.28" width="9.13" height="358.44"/>
      <rect class="st43" x="452.26" y="215.28" width="9.13" height="358.44"/>
      <rect class="st56" x="461.39" y="215.28" width="9.13" height="358.44"/>
      <rect class="st14" x="470.52" y="215.28" width="9.13" height="358.44"/>
      <rect class="st47" x="479.65" y="215.28" width="9.13" height="358.44"/>
      <rect class="st53" x="488.77" y="215.28" width="9.13" height="358.44"/>
      <rect class="st5" x="497.9" y="215.28" width="8.65" height="358.44"/>
      <rect class="st28" x="84.08" y="152.62" width="3.07" height="483.78"/>
      <rect class="st26" x="87.15" y="152.62" width="9.13" height="483.78"/>
      <rect class="st33" x="96.28" y="152.62" width="9.13" height="483.78"/>
      <rect class="st2" x="105.4" y="152.62" width="9.13" height="483.78"/>
      <rect class="st6" x="114.53" y="152.62" width="9.13" height="483.78"/>
      <rect class="st10" x="123.66" y="152.62" width="9.13" height="483.78"/>
      <rect class="st8" x="132.79" y="152.62" width="9.13" height="483.78"/>
      <rect class="st18" x="141.92" y="152.62" width="9.13" height="483.78"/>
      <rect class="st44" x="151.04" y="152.62" width="9.13" height="483.78"/>
      <rect class="st4" x="160.17" y="152.62" width="9.13" height="483.78"/>
      <rect class="st29" x="169.3" y="152.62" width="9.13" height="483.78"/>
      <rect class="st21" x="178.43" y="152.62" width="9.13" height="483.78"/>
      <rect class="st54" x="187.56" y="152.62" width="9.13" height="483.78"/>
      <rect class="st39" x="196.68" y="152.62" width="9.13" height="483.78"/>
      <rect class="st52" x="205.81" y="152.62" width="9.13" height="483.78"/>
      <rect class="st48" x="214.94" y="152.62" width="9.13" height="483.78"/>
      <rect class="st3" x="224.07" y="152.62" width="9.13" height="483.78"/>
      <rect class="st22" x="233.19" y="152.62" width="9.13" height="483.78"/>
      <rect class="st25" x="242.32" y="152.62" width="9.13" height="483.78"/>
      <rect class="st1" x="251.45" y="152.62" width="9.13" height="483.78"/>
      <rect class="st23" x="260.58" y="152.62" width="9.13" height="483.78"/>
      <rect class="st42" x="269.71" y="152.62" width="9.13" height="483.78"/>
      <rect class="st45" x="278.83" y="152.62" width="9.13" height="483.78"/>
      <rect class="st58" x="287.96" y="152.62" width="9.13" height="483.78"/>
      <rect class="st35" x="297.09" y="152.62" width="9.13" height="483.78"/>
      <rect class="st41" x="306.22" y="152.62" width="9.13" height="483.78"/>
      <rect class="st24" x="315.35" y="152.62" width="9.13" height="483.78"/>
      <rect class="st37" x="324.47" y="152.62" width="9.13" height="483.78"/>
      <rect class="st13" x="333.6" y="152.62" width="9.13" height="483.78"/>
      <rect class="st36" x="342.73" y="152.62" width="9.13" height="483.78"/>
      <rect class="st16" x="351.86" y="152.62" width="9.13" height="483.78"/>
      <rect class="st34" x="360.98" y="152.62" width="9.13" height="483.78"/>
      <rect class="st46" x="370.11" y="152.62" width="9.13" height="483.78"/>
      <rect class="st30" x="379.24" y="152.62" width="9.13" height="483.78"/>
      <rect class="st40" x="388.37" y="152.62" width="9.13" height="483.78"/>
      <rect class="st12" x="397.5" y="152.62" width="9.13" height="483.78"/>
      <rect class="st11" x="406.62" y="152.62" width="9.13" height="483.78"/>
      <rect class="st0" x="415.75" y="152.62" width="9.13" height="483.78"/>
      <rect class="st32" x="424.88" y="152.62" width="9.13" height="483.78"/>
      <rect class="st31" x="434.01" y="152.62" width="9.13" height="483.78"/>
      <rect class="st51" x="443.14" y="152.62" width="9.13" height="483.78"/>
      <rect class="st43" x="452.26" y="152.62" width="9.13" height="483.78"/>
      <rect class="st56" x="461.39" y="152.62" width="9.13" height="483.78"/>
      <rect class="st14" x="470.52" y="152.62" width="9.13" height="483.78"/>
      <rect class="st47" x="479.65" y="152.62" width="9.13" height="483.78"/>
      <rect class="st53" x="488.77" y="152.62" width="9.13" height="483.78"/>
      <rect class="st5" x="497.9" y="152.62" width="9.13" height="483.78"/>
      <rect class="st9" x="507.03" y="152.62" width="9.13" height="483.78"/>
      <rect class="st38" x="516.16" y="152.62" width="9.13" height="483.78"/>
      <rect class="st15" x="525.29" y="152.62" width="9.13" height="483.78"/>
      <rect class="st55" x="534.41" y="152.62" width="9.13" height="483.78"/>
      <rect class="st49" x="543.54" y="152.62" width="9.13" height="483.78"/>
      <rect class="st17" x="552.67" y="152.62" width="9.13" height="483.78"/>
      <rect class="st17" x="561.8" y="152.62" width="7.42" height="483.78"/>
    </g>
    <g class="st50">
      <rect class="st28" x="227.35" y="300.33" width="3.79" height="187.83"/>
      <rect class="st26" x="231.14" y="300.33" width="3.79" height="187.83"/>
      <rect class="st33" x="234.93" y="300.33" width="3.79" height="187.83"/>
      <rect class="st2" x="238.72" y="300.33" width="3.79" height="187.83"/>
      <rect class="st6" x="242.51" y="300.33" width="3.79" height="187.83"/>
      <rect class="st10" x="246.3" y="300.33" width="3.79" height="187.83"/>
      <rect class="st8" x="250.1" y="300.33" width="3.79" height="187.83"/>
      <rect class="st18" x="253.89" y="300.33" width="3.79" height="187.83"/>
      <rect class="st44" x="257.68" y="300.33" width="3.79" height="187.83"/>
      <rect class="st4" x="261.47" y="300.33" width="3.79" height="187.83"/>
      <rect class="st29" x="265.26" y="300.33" width="3.79" height="187.83"/>
      <rect class="st21" x="269.05" y="300.33" width="3.79" height="187.83"/>
      <rect class="st54" x="272.84" y="300.33" width="3.79" height="187.83"/>
      <rect class="st39" x="276.64" y="300.33" width="3.79" height="187.83"/>
      <rect class="st52" x="280.43" y="300.33" width="3.79" height="187.83"/>
      <rect class="st48" x="284.22" y="300.33" width="3.79" height="187.83"/>
      <rect class="st3" x="288.01" y="300.33" width="3.79" height="187.83"/>
      <rect class="st22" x="291.8" y="300.33" width="3.79" height="187.83"/>
      <rect class="st25" x="295.59" y="300.33" width="3.79" height="187.83"/>
      <rect class="st1" x="299.38" y="300.33" width="3.79" height="187.83"/>
      <rect class="st23" x="303.17" y="300.33" width="3.79" height="187.83"/>
      <rect class="st42" x="306.97" y="300.33" width="3.79" height="187.83"/>
      <rect class="st45" x="310.76" y="300.33" width="3.79" height="187.83"/>
      <rect class="st58" x="314.55" y="300.33" width="3.79" height="187.83"/>
      <rect class="st35" x="318.34" y="300.33" width="3.79" height="187.83"/>
      <rect class="st41" x="322.13" y="300.33" width="3.79" height="187.83"/>
      <rect class="st24" x="325.92" y="300.33" width="3.79" height="187.83"/>
      <rect class="st37" x="329.71" y="300.33" width="3.79" height="187.83"/>
      <rect class="st13" x="333.51" y="300.33" width="3.79" height="187.83"/>
      <rect class="st36" x="337.3" y="300.33" width="3.79" height="187.83"/>
      <rect class="st16" x="341.09" y="300.33" width="3.79" height="187.83"/>
      <rect class="st34" x="344.88" y="300.33" width="3.79" height="187.83"/>
      <rect class="st46" x="348.67" y="300.33" width="3.79" height="187.83"/>
      <rect class="st30" x="352.46" y="300.33" width="3.79" height="187.83"/>
      <rect class="st40" x="356.25" y="300.33" width="3.79" height="187.83"/>
      <rect class="st12" x="360.04" y="300.33" width="3.79" height="187.83"/>
      <rect class="st11" x="363.84" y="300.33" width="3.79" height="187.83"/>
      <rect class="st0" x="367.63" y="300.33" width="3.79" height="187.83"/>
      <rect class="st32" x="371.42" y="300.33" width="3.79" height="187.83"/>
      <rect class="st31" x="375.21" y="300.33" width="3.79" height="187.83"/>
      <rect class="st51" x="379" y="300.33" width="3.79" height="187.83"/>
      <rect class="st43" x="382.79" y="300.33" width="3.79" height="187.83"/>
      <rect class="st56" x="386.58" y="300.33" width="3.79" height="187.83"/>
      <rect class="st14" x="390.38" y="300.33" width="3.79" height="187.83"/>
      <rect class="st47" x="394.17" y="300.33" width="3.79" height="187.83"/>
      <rect class="st53" x="397.96" y="300.33" width="3.79" height="187.83"/>
      <rect class="st5" x="401.75" y="300.33" width="3.79" height="187.83"/>
      <rect class="st9" x="405.54" y="300.33" width="3.79" height="187.83"/>
      <rect class="st38" x="409.33" y="300.33" width="3.79" height="187.83"/>
      <rect class="st15" x="413.12" y="300.33" width="3.79" height="187.83"/>
      <rect class="st55" x="416.91" y="300.33" width="3.79" height="187.83"/>
      <rect class="st49" x="420.71" y="300.33" width="3.79" height="187.83"/>
      <rect class="st17" x="424.5" y="300.33" width="3.79" height="187.83"/>
    </g>
  </g>
</svg>
